<?xml version="1.0" standalone="no"?>
<!DOCTYPE svg PUBLIC "-//W3C//DTD SVG 20010904//EN"
 "http://www.w3.org/TR/2001/REC-SVG-20010904/DTD/svg10.dtd">
<svg version="1.0" xmlns="http://www.w3.org/2000/svg"
 width="500.000000pt" height="500.000000pt" viewBox="0 0 500.000000 500.000000"
 preserveAspectRatio="xMidYMid meet">
<metadata>
Created by potrace 1.11, written by Peter Selinger 2001-2013
</metadata>
<g transform="translate(0.000000,500.000000) scale(0.100000,-0.100000)"
fill="#000000" stroke="none">
<path d="M0 2500 l0 -2500 2500 0 2500 0 0 2500 0 2500 -2500 0 -2500 0 0
-2500z m2418 1084 c42 -9 124 -33 181 -55 57 -21 117 -41 135 -44 43 -9 82 9
101 45 13 26 21 30 55 30 l40 0 0 -42 c0 -24 7 -153 15 -288 8 -135 15 -248
15 -252 0 -5 -19 -8 -43 -8 l-42 0 -25 71 c-35 104 -102 212 -183 293 -117
118 -223 157 -427 157 -221 0 -349 -53 -484 -199 -166 -180 -256 -468 -256
-822 -1 -211 27 -376 90 -536 94 -237 269 -406 475 -459 139 -36 325 -27 439
20 49 21 103 71 129 119 20 39 21 54 22 301 0 284 -2 298 -58 339 -22 16 -47
22 -108 25 l-80 3 3 47 3 46 353 3 352 2 0 -50 0 -50 -39 0 c-56 0 -88 -15
-106 -49 -13 -25 -15 -82 -15 -364 0 -310 1 -335 18 -350 26 -24 72 -31 118
-18 44 12 51 8 60 -36 6 -30 4 -33 -45 -57 -70 -36 -153 -56 -231 -56 -89 0
-139 16 -177 57 -18 19 -37 32 -42 29 -35 -22 -278 -77 -386 -87 -455 -43
-823 145 -1002 512 -135 276 -162 684 -67 1017 48 167 165 366 275 468 130
120 306 205 492 239 105 19 350 19 445 -1z m1368 -1883 c23 -10 54 -36 70 -57
26 -33 29 -46 29 -109 0 -63 -3 -76 -28 -108 -38 -51 -81 -71 -148 -71 -101
-1 -179 77 -179 179 0 136 133 222 256 166z"/>
</g>
</svg>
